# xmcd
#
# Track frame offsets: 
#        183
#        14460
#        27213
#        41558
#        53603
#        68373
#        81375
#        95578
#        108843
#        121320
#        136015
#        149443
#        164588
#        177378
#        188895
#        201760
#
# Disc length: 2840 seconds
#
# Revision: 2
# Processed by: cddbd v1.5.2PL0 Copyright (c) Steve Scherf et al.
# Submitted via: ExactAudioCopyFreeDBPlugin 1.0
#
DISCID=d70b1610
DTITLE=Ruth Brown and Her Rhythmmakers - Sweet Baby Of Mine
DYEAR=1900
DGENRE=Rhythm and Blues
TTITLE0=Love Me Baby
TTITLE1=It's Raining
TTITLE2=(I'll Come Back) Someday
TTITLE3=R. B. Blues
TTITLE4=It's All In Your Mind
TTITLE5=Mend Your Ways
TTITLE6=Rain Is A Bringdown
TTITLE7=Wirthout My Love
TTITLE8=I Would If I Could
TTITLE9=Am I Making The Same Mistake Again?
TTITLE10=The Tears Keep Tumbling Down
TTITLE11=Have A Good Time
TTITLE12=Ever Since My Baby's Been Gone
TTITLE13=My Heart Is Breaking Over You
TTITLE14=I Want To Do More
TTITLE15=Sweet Baby Of Mine
EXTD=
EXTT0=
EXTT1=
EXTT2=
EXTT3=
EXTT4=
EXTT5=
EXTT6=
EXTT7=
EXTT8=
EXTT9=
EXTT10=
EXTT11=
EXTT12=
EXTT13=
EXTT14=
EXTT15=
PLAYORDER=
